# xmcd
#
# Track frame offsets:
#	150
#	12210
#	28005
#	43790
#	61800
#	78035
#	90060
#	106810
#	118880
#	129510
#	145115
#	159035
#	180995
#	194325
#	207685
#	217870
#
# Disc length: 3194 seconds
#
# Revision: 4
# Processed by: cddbd v1.5.2PL0 Copyright (c) Steve Scherf et al.
# Submitted via: SynApp - FreeCDDB Version: 2.5
#
DISCID=c40c7810
DTITLE=Dixieland, Various Artists - Dixieland 1
DYEAR=1995
DGENRE=Jazz
TTITLE0=The Original Dixieland Stompers - Joshua Fit The Batltle Of Jericho
TTITLE1=The Original Dixieland Stompers - When The Saints
TTITLE2=The Original Dixieland Stompers - Buddy Bolden Blues
TTITLE3=Brixie Dixie Jazz Band - Sweet Georgia Brown
TTITLE4=Brixie Dixie Jazz Band - When You're Smiling
TTITLE5=Brixie Dixie Jazz Band - Honeysuckle Rose
TTITLE6=The Original Dixieland Stompers - Down By The Riverside
TTITLE7=The Original Dixieland Stompers - Go Tell It To The Mountains
TTITLE8=The Original Dixieland Stompers - Lizzy's Rag
TTITLE9=Brixie Dixie Jazz Band - I Want A Little Girl
TTITLE10=Brixie Dixie Jazz Band - When My Sugar Walks Down The Street
TTITLE11=The Dutch Swing College Band - Georgia
TTITLE12=The Dutch Swing College Band - Bad, bad Leroy Brown
TTITLE13=The Original Dixieland Stompers - Play It To Me
TTITLE14=The Dutch Swing College Band - Champs Elysees
TTITLE15=Brixie Dixie Jazz Band - Ice Cream
EXTD=YEAR: 1995
EXTT0=
EXTT1=
EXTT2=
EXTT3=
EXTT4=
EXTT5=
EXTT6=
EXTT7=
EXTT8=
EXTT9=
EXTT10=
EXTT11=
EXTT12=
EXTT13=
EXTT14=
EXTT15=
PLAYORDER=
